# xmcd
#
# Track frame offsets: 
#        150
#        15778
#        35714
#        51501
#        72982
#        93994
#        114158
#        124311
#        134818
#        151535
#        166688
#        183507
#        194450
#        202298
#        219369
#        232527
#        251804
#        262919
#        276452
#        295448
#        311647
#
# Disc length: 4325 seconds
#
# Revision: 0
# Processed by: cddbd v1.5.2PL0 Copyright (c) Steve Scherf et al.
# Submitted via: ExactAudioCopy v0.95a4
#
DISCID=3610e315
DTITLE=Various Artist - Blues Muse
DYEAR=2015
DGENRE=Blues
TTITLE0=The Grotto Sessions - La Collegiate
TTITLE1=Taj Mahal - Spike Driver Blues
TTITLE2=Captain Luke - Old Black Buck
TTITLE3=Eddie Tigner - Route 66
TTITLE4=Alabama Slim - Got The Blues
TTITLE5=Robert Finley - Age Don't Mean A Thing
TTITLE6=Dom Flemons - Polly Put The Kettle On
TTITLE7=John Dee Holeman - Hambone
TTITLE8=Algia Mae Hinton - Snap Your Fingers
TTITLE9=Willie Farmer - I Am The Lightnin'
TTITLE10=Dave McGrew - D.O.C. Man
TTITLE11=Martha Spencer and Kelley Breiding - Sweet Valentine
TTITLE12=Boot Hanks With Tim Duffy - I Wanna Boogie
TTITLE13=Eric Clapton With Tim Duffy - Mississppi Blues
TTITLE14=Guitar Gabriel - Landlord Blues
TTITLE15=Drink Small - Widow Woman
TTITLE16=Sam Frazier Jr. - Cabbage Man
TTITLE17=Cary Morin - Song It Louder
TTITLE18=Ironing Board Sam - Loose Diamonds
TTITLE19=The Branchettes - I Know I've Been Changed
TTITLE20=Theotis Taylor - Something Within Me
EXTD=
EXTT0=
EXTT1=
EXTT2=
EXTT3=
EXTT4=
EXTT5=
EXTT6=
EXTT7=
EXTT8=
EXTT9=
EXTT10=
EXTT11=
EXTT12=
EXTT13=
EXTT14=
EXTT15=
EXTT16=
EXTT17=
EXTT18=
EXTT19=
EXTT20=
PLAYORDER=
